<?xml version="1.0" encoding="UTF-8"?> <svg xmlns="http://www.w3.org/2000/svg" id="Layer_1" data-name="Layer 1" viewBox="0 0 230.22 92"> <g> <path d="M27.39,39.92l-1.89,4.24s40.52-8.65,74.5,10.67v-3.76s-31.25-18.21-72.61-11.16Z"></path> <path d="M35.7,.07l20.6,50.78s9.93-1.38,16.66,4.87c3.72,3.46,4.45,9.17,1.47,13.28-1.55,2.13-4.13,4.33-8.37,6.22l6.77,16.73h24.98L60.7,0l-25.01,.07Z"></path> <path d="M58.84,57.35l4.57,11.36s8.93-4.25,5.74-10.03c-2.75-4.98-10.31-1.33-10.31-1.33Z"></path> <path d="M39.42,7.55S22.59,32.03,15.76,56.81c-6.82,24.78-5.11,35.19-5.11,35.19h12.81s-1.63-23.71,18.54-33.38c12.09-5.8,19.49-5.35,23.49-4.06,2.7,.87,3.99,3.87,2.81,6.44-2.34,5.07-10.08,12.33-35.54,8.65l-1.97,3.63s32.2,5.66,40.95-9.65c1.99-3.48,1.37-7.84-1.66-10.47-3.71-3.21-11.19-5.59-26.01,.36-5.84,2.35-11.1,5.98-15.18,10.76-4.49,5.27-9.17,13.05-8.98,22.47l-5.42,.12s1.2-38.4,26.92-74.6l-1.98-4.72Z"></path> <path d="M24.75,68.39S4.39,63.56,3.92,56.37c-.47-7.19,16.68-11.55,16.68-11.55l1.77-4.6S-.69,45.29,.02,56.13s22.72,15.44,22.72,15.44l2.01-3.18Z"></path> </g> <g> <g> <path d="M125.48,43.57l-1.48-3.69h-7.37l-1.4,3.69h-5.01l7.99-18.8h4.47l7.91,18.8h-5.11Zm-5.11-13.78l-2.42,6.45h4.79l-2.37-6.45Z"></path> <path d="M140.74,43.57v-7.22c0-.37-.03-.73-.09-1.06-.06-.34-.17-.63-.31-.89-.14-.26-.35-.46-.61-.61-.26-.15-.59-.23-.98-.23s-.74,.08-1.04,.23c-.3,.15-.54,.36-.74,.62s-.35,.57-.44,.92c-.1,.35-.15,.7-.15,1.08v7.17h-4.44v-13.22h4.28v1.83h.05c.16-.28,.37-.56,.63-.84,.26-.27,.57-.51,.92-.7,.35-.19,.73-.35,1.14-.48s.85-.19,1.32-.19c.9,0,1.66,.16,2.29,.48s1.13,.73,1.52,1.23c.39,.5,.66,1.08,.83,1.74,.17,.66,.26,1.31,.26,1.96v8.18h-4.44Z"></path> <path d="M162.73,42.33c0,1.29-.19,2.42-.57,3.37s-.91,1.75-1.59,2.38c-.68,.63-1.51,1.1-2.49,1.41-.98,.31-2.06,.46-3.24,.46s-2.4-.18-3.65-.53c-1.25-.35-2.33-.87-3.24-1.54l2.21-3.11c.65,.57,1.36,.99,2.14,1.26,.78,.27,1.55,.41,2.3,.41,1.29,0,2.25-.34,2.87-1.01,.62-.67,.93-1.57,.93-2.68v-.8h-.08c-.41,.53-.97,.96-1.67,1.27s-1.5,.48-2.4,.48c-1.02,0-1.93-.18-2.72-.54-.79-.36-1.46-.85-2.01-1.47-.55-.62-.96-1.34-1.25-2.16-.29-.82-.43-1.69-.43-2.62s.14-1.8,.43-2.63c.29-.83,.7-1.57,1.25-2.2,.55-.64,1.22-1.15,2.01-1.53,.79-.38,1.69-.57,2.69-.57,.84,0,1.65,.17,2.42,.5,.77,.34,1.39,.86,1.86,1.57h.05v-1.7h4.17v11.98Zm-4.2-5.44c0-.44-.08-.87-.23-1.27-.15-.41-.37-.77-.66-1.08-.29-.31-.63-.55-1.02-.73-.39-.18-.84-.27-1.35-.27s-.95,.09-1.33,.27c-.39,.18-.71,.42-.98,.72s-.48,.65-.62,1.06c-.14,.41-.22,.84-.22,1.3s.07,.87,.22,1.27c.14,.41,.35,.77,.62,1.08,.27,.31,.6,.56,.98,.74,.39,.19,.83,.28,1.33,.28s.96-.09,1.36-.28c.4-.19,.74-.43,1.02-.73,.28-.3,.49-.65,.65-1.06,.15-.41,.23-.84,.23-1.3Z"></path> <path d="M179.53,37.12v.53c0,.18,0,.35-.03,.5h-9.72c.04,.37,.15,.71,.34,1.01,.19,.3,.43,.56,.73,.78,.3,.22,.63,.39,1,.52,.37,.12,.75,.19,1.14,.19,.7,0,1.29-.13,1.78-.39,.48-.26,.88-.59,1.18-1l3.07,1.91c-.63,.9-1.46,1.6-2.49,2.08-1.03,.49-2.23,.73-3.59,.73-1,0-1.96-.16-2.85-.46s-1.68-.76-2.35-1.35c-.67-.59-1.2-1.32-1.59-2.19-.39-.87-.58-1.86-.58-2.97s.19-2.06,.57-2.93c.38-.88,.89-1.62,1.53-2.23,.65-.61,1.41-1.08,2.29-1.42,.88-.34,1.83-.5,2.85-.5s1.89,.16,2.72,.49c.83,.33,1.53,.8,2.13,1.42,.59,.62,1.05,1.37,1.39,2.26,.33,.89,.5,1.89,.5,3.03Zm-4.06-1.67c0-.69-.22-1.28-.66-1.78-.44-.5-1.1-.74-1.98-.74-.43,0-.83,.07-1.18,.2-.36,.13-.67,.31-.94,.54s-.48,.5-.65,.81c-.16,.31-.25,.63-.27,.97h5.68Z"></path> <path d="M182.33,43.57V23.5h4.49v20.07h-4.49Z"></path> </g> <g> <path d="M120.57,52.6v15.46h-4.77v-15.46h-5.58v-4.02h15.92v4.02h-5.58Z"></path> <path d="M134.57,58.07c-.2-.06-.4-.09-.6-.11-.19-.02-.39-.03-.57-.03-.61,0-1.13,.11-1.55,.33-.42,.22-.75,.48-1,.8-.25,.31-.43,.65-.54,1.02s-.17,.69-.17,.96v7.02h-4.57v-13.68h4.41v1.98h.06c.35-.7,.85-1.27,1.51-1.72,.65-.44,1.4-.66,2.26-.66,.19,0,.37,0,.54,.03,.18,.02,.32,.05,.43,.08l-.2,3.99Z"></path> <path d="M135.96,56.23c.82-.77,1.77-1.35,2.86-1.73,1.09-.39,2.2-.58,3.33-.58s2.16,.14,2.97,.43c.81,.28,1.46,.72,1.97,1.32,.5,.6,.87,1.35,1.1,2.26,.23,.91,.35,1.99,.35,3.23v6.9h-4.18v-1.46h-.08c-.35,.57-.89,1.01-1.6,1.32-.72,.31-1.49,.47-2.33,.47-.56,0-1.13-.07-1.73-.22-.59-.15-1.14-.39-1.63-.72-.49-.33-.9-.77-1.21-1.32-.32-.55-.47-1.23-.47-2.04,0-.99,.27-1.79,.82-2.39,.55-.61,1.25-1.07,2.12-1.4,.86-.33,1.83-.55,2.89-.66s2.09-.17,3.09-.17v-.22c0-.68-.24-1.18-.72-1.5-.48-.32-1.08-.48-1.78-.48-.65,0-1.28,.14-1.88,.41-.6,.28-1.12,.61-1.55,.99l-2.31-2.45Zm8.39,5.86h-.59c-.5,0-1.01,.02-1.52,.07-.51,.05-.97,.13-1.37,.26-.4,.13-.73,.32-.99,.56-.26,.25-.39,.57-.39,.98,0,.26,.06,.48,.18,.66,.12,.18,.27,.33,.46,.44s.4,.19,.64,.23c.24,.05,.47,.07,.7,.07,.93,0,1.64-.25,2.13-.76,.49-.5,.74-1.19,.74-2.05v-.47Z"></path> <path d="M161.05,68.06v-7.48c0-.39-.03-.75-.1-1.1-.07-.35-.17-.66-.32-.92-.15-.27-.36-.48-.63-.63-.27-.16-.61-.23-1.02-.23s-.77,.08-1.07,.23c-.31,.16-.56,.37-.77,.65s-.36,.59-.46,.95c-.1,.36-.15,.73-.15,1.11v7.43h-4.6v-13.7h4.43v1.9h.06c.17-.29,.39-.58,.66-.87,.27-.28,.59-.53,.95-.73,.36-.2,.76-.37,1.18-.5s.88-.19,1.37-.19c.93,0,1.72,.17,2.37,.5s1.18,.76,1.58,1.28c.4,.52,.69,1.12,.86,1.8,.18,.68,.26,1.36,.26,2.04v8.47h-4.6Z"></path> <path d="M177.28,58.4c-.37-.35-.81-.64-1.31-.88s-1.03-.36-1.59-.36c-.43,0-.82,.08-1.18,.25-.36,.17-.54,.45-.54,.85s.2,.66,.6,.83c.4,.17,1.05,.35,1.94,.55,.52,.11,1.05,.27,1.58,.47,.53,.2,1.01,.47,1.44,.8,.43,.33,.77,.73,1.03,1.21,.26,.48,.39,1.05,.39,1.71,0,.86-.18,1.59-.53,2.19-.35,.6-.81,1.08-1.38,1.44-.57,.37-1.2,.63-1.91,.8-.71,.17-1.41,.25-2.12,.25-1.13,0-2.24-.18-3.33-.54-1.09-.36-1.99-.88-2.72-1.58l2.57-2.67c.41,.44,.91,.81,1.51,1.1,.59,.29,1.23,.44,1.9,.44,.37,0,.74-.09,1.1-.26,.36-.17,.54-.48,.54-.92s-.22-.73-.67-.94-1.14-.41-2.09-.63c-.48-.11-.97-.26-1.45-.44-.48-.18-.92-.43-1.3-.74-.38-.31-.69-.7-.93-1.16s-.36-1.01-.36-1.65c0-.83,.18-1.53,.53-2.1,.35-.58,.81-1.05,1.37-1.42s1.18-.64,1.85-.81c.68-.17,1.35-.26,2.02-.26,1.04,0,2.06,.16,3.05,.48,.99,.32,1.84,.8,2.52,1.44l-2.51,2.56Z"></path> <path d="M182.33,68.06v-20.8h4.66v20.8h-4.66Z"></path> <path d="M190.38,56.23c.82-.77,1.77-1.35,2.86-1.73,1.09-.39,2.2-.58,3.33-.58s2.16,.14,2.97,.43c.81,.28,1.46,.72,1.97,1.32,.5,.6,.87,1.35,1.1,2.26,.23,.91,.35,1.99,.35,3.23v6.9h-4.18v-1.46h-.08c-.35,.57-.89,1.01-1.6,1.32-.72,.31-1.49,.47-2.33,.47-.56,0-1.13-.07-1.73-.22-.59-.15-1.14-.39-1.63-.72-.49-.33-.9-.77-1.21-1.32-.32-.55-.47-1.23-.47-2.04,0-.99,.27-1.79,.82-2.39,.55-.61,1.25-1.07,2.12-1.4,.86-.33,1.83-.55,2.89-.66s2.09-.17,3.09-.17v-.22c0-.68-.24-1.18-.72-1.5-.48-.32-1.08-.48-1.78-.48-.65,0-1.28,.14-1.88,.41-.6,.28-1.12,.61-1.55,.99l-2.31-2.45Zm8.39,5.86h-.59c-.5,0-1.01,.02-1.52,.07-.51,.05-.97,.13-1.37,.26-.4,.13-.73,.32-.99,.56-.26,.25-.39,.57-.39,.98,0,.26,.06,.48,.18,.66,.12,.18,.27,.33,.46,.44s.4,.19,.64,.23c.24,.05,.47,.07,.7,.07,.93,0,1.64-.25,2.13-.76,.49-.5,.74-1.19,.74-2.05v-.47Z"></path> <path d="M211.04,57.72v5.25c0,.64,.13,1.13,.38,1.45,.25,.32,.7,.48,1.35,.48,.22,0,.46-.02,.71-.06,.25-.04,.46-.09,.63-.17l.06,3.3c-.32,.11-.72,.21-1.2,.29-.48,.08-.97,.12-1.45,.12-.93,0-1.71-.12-2.34-.34s-1.14-.56-1.52-.99c-.38-.43-.66-.95-.82-1.54s-.25-1.26-.25-2v-5.79h-2.23v-3.36h2.2v-3.6h4.49v3.6h3.26v3.36h-3.26Z"></path> <path d="M230.22,61.38v.55c0,.18,0,.36-.03,.52h-10.07c.04,.39,.15,.73,.35,1.05,.19,.31,.45,.58,.75,.81,.31,.23,.65,.41,1.03,.54,.38,.13,.78,.19,1.18,.19,.72,0,1.34-.13,1.84-.4,.5-.27,.91-.61,1.23-1.03l3.18,1.98c-.65,.94-1.51,1.66-2.58,2.16-1.07,.5-2.31,.76-3.72,.76-1.04,0-2.03-.16-2.96-.48s-1.74-.79-2.44-1.4c-.7-.61-1.25-1.37-1.64-2.27-.4-.9-.6-1.93-.6-3.08s.2-2.13,.59-3.04c.39-.91,.92-1.68,1.59-2.31,.67-.63,1.46-1.12,2.37-1.47,.91-.35,1.9-.52,2.96-.52s1.96,.17,2.82,.51c.85,.34,1.59,.83,2.2,1.47,.61,.64,1.09,1.42,1.44,2.34s.52,1.96,.52,3.14Zm-4.21-1.73c0-.72-.23-1.33-.68-1.84-.46-.51-1.14-.77-2.05-.77-.45,0-.85,.07-1.23,.21-.37,.14-.7,.33-.98,.56s-.5,.52-.67,.84c-.17,.32-.26,.66-.28,1h5.88Z"></path> </g> </g> </svg> 