<?xml version="1.0" encoding="UTF-8"?> <svg xmlns="http://www.w3.org/2000/svg" id="Layer_1" data-name="Layer 1" viewBox="0 0 26.22 24.13"> <defs> <style> .cls-1 { fill: #fff; } </style> </defs> <path class="cls-1" d="M26.22,13.4v.98c-1.77-1-3.6-1.72-5.4-2.22-2.46-.68-4.86-.97-6.97-1.05-4.16-.17-7.17,.47-7.17,.47l.5-1.11c2.21-.38,4.31-.48,6.25-.4,2.66,.1,5.03,.54,6.98,1.07,3.62,.98,5.81,2.26,5.81,2.26Z"></path> <path class="cls-1" d="M25.64,24.12h-6.55l-1.77-4.39c1.11-.5,1.79-1.07,2.19-1.63,.78-1.08,.59-2.58-.38-3.48-.16-.15-.33-.29-.5-.4,.57,.7,.63,1.67,.18,2.47-2.3,4.01-10.74,2.53-10.74,2.53l.52-.95c4.16,.6,6.52,.08,7.85-.71l-1.01-2.52s1.75-.84,2.56,.14c-.1-.4-.4-.67-.82-.87-1-.48-2.99-.46-6.16,1.06-5.29,2.54-4.86,8.76-4.86,8.76H2.79s-.31-1.86,.6-6.17c.35,.14,.69,.27,1.01,.38-.54,2.71-.6,4.44-.6,4.44l1.42-.03c-.05-2.47,1.18-4.51,2.35-5.89,1.07-1.26,2.45-2.21,3.98-2.82,1.22-.49,2.26-.77,3.13-.89l-.83-2.04c2.11,.08,4.51,.37,6.97,1.05l4.82,11.96Z"></path> <path class="cls-1" d="M15.92,0l-6.56,.02,.86,2.13c-.53,.8-2.79,4.28-4.55,8.45C4.64,10.85-.16,12.19,0,14.72c.1,1.53,1.83,2.59,3.39,3.24,.35,.14,.69,.27,1.01,.38,.89,.29,1.56,.43,1.56,.43l.53-.83s-.84-.2-1.88-.57c.84-3.73,2.58-8.92,6.12-13.96l2.7,6.66c2.66,.1,5.03,.54,6.98,1.07L15.92,0ZM4.13,14.9c-.2,.74-.38,1.44-.53,2.08-1.27-.55-2.51-1.3-2.57-2.2-.11-1.63,3.24-2.7,4.14-2.97-.4,1.01-.75,2.05-1.04,3.09Z"></path> </svg> 