<?xml version="1.0" encoding="UTF-8"?> <svg xmlns="http://www.w3.org/2000/svg" xmlns:xlink="http://www.w3.org/1999/xlink" xmlns:svgjs="http://svgjs.com/svgjs" width="418.000000pt" height="384.000000pt"> <svg xmlns="http://www.w3.org/2000/svg" width="418.000000pt" height="384.000000pt" viewBox="0 0 418.000000 384.000000" preserveAspectRatio="xMidYMid meet"> <g transform="translate(0.000000,384.000000) scale(0.100000,-0.100000)" fill="#000000" stroke="none"> <path d="M1500 3826 c0 -7 29 -84 64 -170 l65 -156 -93 -148 c-220 -350 -385 -654 -546 -1006 l-87 -188 -113 -35 c-468 -141 -738 -333 -780 -553 -28 -149 72 -317 265 -445 65 -44 214 -123 256 -137 6 -2 0 -58 -16 -143 -55 -298 -91 -704 -71 -808 l7 -37 267 2 267 3 6 140 c23 495 242 915 602 1152 177 117 447 228 668 274 182 37 403 28 500 -22 51 -26 114 -107 97 -124 -2 -2 -27 7 -55 21 -81 40 -173 50 -266 30 -42 -10 -79 -20 -81 -24 -2 -4 31 -94 75 -201 43 -107 79 -197 79 -201 0 -16 -166 -82 -263 -105 -147 -35 -248 -45 -455 -45 -157 0 -429 19 -499 35 -18 4 -28 -6 -63 -71 -23 -41 -40 -77 -39 -79 9 -7 154 -25 299 -36 267 -20 604 0 795 47 191 48 349 120 457 209 69 56 146 155 174 220 36 88 36 197 -2 281 -10 21 -20 44 -22 49 -2 6 21 -15 52 -45 38 -36 70 -81 94 -130 36 -71 37 -78 37 -180 0 -99 -2 -110 -33 -172 -54 -111 -182 -225 -335 -299 -26 -13 -47 -26 -47 -29 0 -4 56 -161 124 -351 l124 -344 531 -3 c292 -1 531 0 531 3 0 3 -169 428 -376 945 -207 518 -374 943 -371 947 9 8 223 -61 382 -124 77 -30 211 -90 299 -134 87 -43 162 -79 167 -79 5 0 9 34 9 76 l0 75 -152 74 c-213 101 -488 204 -723 270 l-60 16 -354 885 -354 884 -518 0 c-435 0 -519 -2 -519 -14z m428 -1066 l209 -515 -291 -7 c-267 -6 -427 -18 -625 -50 l-73 -11 -39 -85 c-22 -47 -37 -87 -35 -90 3 -2 47 3 98 11 247 42 728 73 931 61 59 -4 107 -8 107 -9 0 -2 29 -72 63 -157 l64 -155 -106 -22 c-269 -57 -575 -189 -762 -330 -237 -179 -446 -449 -550 -714 -36 -92 -69 -229 -80 -342 -7 -60 -17 -113 -23 -117 -6 -4 -55 -8 -109 -8 l-98 0 7 68 c20 223 77 608 92 624 4 4 54 -7 111 -23 58 -16 112 -29 121 -29 10 0 35 27 59 62 36 55 39 64 23 70 -9 4 -73 23 -142 43 -69 20 -128 40 -132 44 -4 3 15 92 42 197 174 674 456 1312 837 1893 43 66 81 117 85 113 4 -4 101 -239 216 -522z m-1113 -827 c-56 -135 -190 -573 -225 -740 l-12 -52 -91 46 c-214 107 -317 212 -317 323 0 69 83 175 193 250 63 42 209 111 328 154 109 41 135 44 124 19z"></path> </g> </svg> <style>@media (prefers-color-scheme: light) { :root { filter: none; } } @media (prefers-color-scheme: dark) { :root { filter: contrast(0.8333333333333334) brightness(1.7); } } </style> </svg> 