<?xml version="1.0" encoding="UTF-8"?> <svg xmlns="http://www.w3.org/2000/svg" id="Layer_1" data-name="Layer 1" viewBox="0 0 48.39 18.67"> <defs> <style> .cls-1 { fill: #fff; } </style> </defs> <path class="cls-1" d="M20.28,10.37s-1.69-.99-4.49-1.75L12.32,0,7.24,.02l.67,1.65c-.41,.62-2.16,3.31-3.52,6.54C3.59,8.39-.12,9.43,0,11.39c.08,1.18,1.42,2,2.62,2.51-.7,3.33-.46,4.77-.46,4.77h2.6s-.33-4.81,3.76-6.78c2.45-1.18,3.99-1.19,4.76-.82,.32,.15,.56,.36,.63,.67-.63-.76-1.98-.11-1.98-.11l.78,1.95c-1.03,.61-2.85,1.01-6.07,.55l-.4,.73s6.53,1.14,8.31-1.96c.35-.62,.3-1.37-.14-1.91,.13,.09,.26,.19,.39,.31,.75,.7,.9,1.86,.29,2.69-.31,.43-.84,.87-1.69,1.26l1.37,3.4h5.07l-3.73-9.25c1.39,.39,2.81,.94,4.18,1.72v-.76ZM.8,11.43c-.09-1.26,2.51-2.09,3.2-2.3-.31,.78-.58,1.59-.8,2.39-.15,.57-.29,1.11-.41,1.61-.98-.43-1.94-1.01-1.99-1.7Zm10.56-1.26c-.67,.09-1.48,.31-2.42,.69-1.18,.47-2.25,1.21-3.08,2.18-.91,1.07-1.86,2.65-1.82,4.56l-1.1,.02s.05-1.34,.46-3.43c.69,.22,1.21,.33,1.21,.33l.41-.64s-.65-.15-1.45-.44c.65-2.89,2-6.9,4.73-10.8l2.09,5.15c-1.5-.06-3.13,.02-4.83,.31l-.39,.86s2.33-.5,5.55-.36l.64,1.58Z"></path> <g> <g> <path class="cls-1" d="M26.73,8.83l-.31-.76h-1.52l-.29,.76h-1.04l1.65-3.89h.92l1.64,3.89h-1.06Zm-1.06-2.85l-.5,1.33h.99l-.49-1.33Z"></path> <path class="cls-1" d="M29.89,8.83v-1.49c0-.08,0-.15-.02-.22-.01-.07-.03-.13-.06-.18-.03-.05-.07-.1-.13-.13-.05-.03-.12-.05-.2-.05s-.15,.02-.21,.05c-.06,.03-.11,.07-.15,.13s-.07,.12-.09,.19c-.02,.07-.03,.15-.03,.22v1.48h-.92v-2.73h.88v.38h.01c.03-.06,.08-.12,.13-.17,.05-.06,.12-.11,.19-.15,.07-.04,.15-.07,.24-.1s.18-.04,.27-.04c.19,0,.34,.03,.47,.1s.23,.15,.31,.26c.08,.1,.14,.22,.17,.36,.04,.14,.05,.27,.05,.41v1.69h-.92Z"></path> <path class="cls-1" d="M34.44,8.57c0,.27-.04,.5-.12,.7s-.19,.36-.33,.49c-.14,.13-.31,.23-.51,.29-.2,.06-.43,.1-.67,.1s-.5-.04-.75-.11c-.26-.07-.48-.18-.67-.32l.46-.64c.13,.12,.28,.2,.44,.26,.16,.06,.32,.09,.48,.09,.27,0,.46-.07,.59-.21,.13-.14,.19-.32,.19-.55v-.16h-.02c-.09,.11-.2,.2-.35,.26s-.31,.1-.5,.1c-.21,0-.4-.04-.56-.11-.16-.07-.3-.18-.41-.3-.11-.13-.2-.28-.26-.45-.06-.17-.09-.35-.09-.54s.03-.37,.09-.54c.06-.17,.15-.32,.26-.46,.11-.13,.25-.24,.41-.32,.16-.08,.35-.12,.56-.12,.17,0,.34,.03,.5,.1,.16,.07,.29,.18,.38,.32h.01v-.35h.86v2.48Zm-.87-1.13c0-.09-.02-.18-.05-.26-.03-.08-.08-.16-.14-.22-.06-.06-.13-.11-.21-.15-.08-.04-.17-.05-.28-.05s-.2,.02-.28,.05c-.08,.04-.15,.09-.2,.15s-.1,.14-.13,.22c-.03,.08-.04,.17-.04,.27s.01,.18,.04,.26c.03,.08,.07,.16,.13,.22,.06,.06,.12,.12,.2,.15,.08,.04,.17,.06,.28,.06s.2-.02,.28-.06c.08-.04,.15-.09,.21-.15,.06-.06,.1-.14,.13-.22,.03-.08,.05-.17,.05-.27Z"></path> <path class="cls-1" d="M37.91,7.5v.11s0,.07,0,.1h-2.01c0,.08,.03,.15,.07,.21,.04,.06,.09,.12,.15,.16,.06,.05,.13,.08,.21,.11,.08,.03,.15,.04,.24,.04,.14,0,.27-.03,.37-.08,.1-.05,.18-.12,.24-.21l.63,.4c-.13,.19-.3,.33-.51,.43-.21,.1-.46,.15-.74,.15-.21,0-.4-.03-.59-.1s-.35-.16-.49-.28c-.14-.12-.25-.27-.33-.45-.08-.18-.12-.38-.12-.61s.04-.43,.12-.61c.08-.18,.18-.33,.32-.46,.13-.13,.29-.22,.47-.29,.18-.07,.38-.1,.59-.1s.39,.03,.56,.1c.17,.07,.32,.17,.44,.29,.12,.13,.22,.28,.29,.47,.07,.18,.1,.39,.1,.63Zm-.84-.35c0-.14-.05-.27-.14-.37-.09-.1-.23-.15-.41-.15-.09,0-.17,.01-.24,.04-.07,.03-.14,.07-.19,.11s-.1,.1-.13,.17c-.03,.06-.05,.13-.06,.2h1.17Z"></path> <path class="cls-1" d="M38.49,8.83V4.68h.93v4.15h-.93Z"></path> </g> <g> <path class="cls-1" d="M25.72,10.7v3.2h-.99v-3.2h-1.15v-.83h3.29v.83h-1.15Z"></path> <path class="cls-1" d="M28.61,11.83s-.08-.02-.12-.02c-.04,0-.08,0-.12,0-.13,0-.23,.02-.32,.07-.09,.05-.16,.1-.21,.16-.05,.06-.09,.13-.11,.21s-.03,.14-.03,.2v1.45h-.95v-2.83h.91v.41h.01c.07-.15,.18-.26,.31-.36,.13-.09,.29-.14,.47-.14,.04,0,.08,0,.11,0,.04,0,.07,0,.09,.02l-.04,.82Z"></path> <path class="cls-1" d="M28.9,11.45c.17-.16,.37-.28,.59-.36,.22-.08,.45-.12,.69-.12s.45,.03,.61,.09c.17,.06,.3,.15,.41,.27,.1,.12,.18,.28,.23,.47,.05,.19,.07,.41,.07,.67v1.43h-.86v-.3h-.02c-.07,.12-.18,.21-.33,.27-.15,.06-.31,.1-.48,.1-.12,0-.23-.02-.36-.05-.12-.03-.24-.08-.34-.15-.1-.07-.19-.16-.25-.27-.07-.11-.1-.25-.1-.42,0-.2,.06-.37,.17-.49,.11-.13,.26-.22,.44-.29,.18-.07,.38-.11,.6-.14s.43-.03,.64-.03v-.05c0-.14-.05-.24-.15-.31-.1-.07-.22-.1-.37-.1-.13,0-.26,.03-.39,.09-.12,.06-.23,.13-.32,.2l-.48-.51Zm1.74,1.21h-.12c-.1,0-.21,0-.31,.01-.11,0-.2,.03-.28,.05-.08,.03-.15,.07-.2,.12-.05,.05-.08,.12-.08,.2,0,.05,.01,.1,.04,.14,.02,.04,.06,.07,.1,.09s.08,.04,.13,.05c.05,0,.1,.01,.14,.01,.19,0,.34-.05,.44-.16,.1-.1,.15-.25,.15-.42v-.1Z"></path> <path class="cls-1" d="M34.09,13.89v-1.55c0-.08,0-.16-.02-.23-.01-.07-.04-.14-.07-.19-.03-.05-.07-.1-.13-.13-.06-.03-.13-.05-.21-.05s-.16,.02-.22,.05c-.06,.03-.12,.08-.16,.13s-.07,.12-.1,.2c-.02,.07-.03,.15-.03,.23v1.54h-.95v-2.83h.92v.39h.01c.03-.06,.08-.12,.14-.18,.06-.06,.12-.11,.2-.15,.07-.04,.16-.08,.24-.1s.18-.04,.28-.04c.19,0,.36,.03,.49,.1s.24,.16,.33,.26c.08,.11,.14,.23,.18,.37,.04,.14,.05,.28,.05,.42v1.75h-.95Z"></path> <path class="cls-1" d="M37.44,11.9c-.08-.07-.17-.13-.27-.18s-.21-.07-.33-.07c-.09,0-.17,.02-.24,.05-.07,.03-.11,.09-.11,.18s.04,.14,.12,.17c.08,.03,.22,.07,.4,.11,.11,.02,.22,.05,.33,.1,.11,.04,.21,.1,.3,.16,.09,.07,.16,.15,.21,.25,.05,.1,.08,.22,.08,.35,0,.18-.04,.33-.11,.45-.07,.12-.17,.22-.29,.3-.12,.08-.25,.13-.39,.16-.15,.03-.29,.05-.44,.05-.23,0-.46-.04-.69-.11-.22-.07-.41-.18-.56-.33l.53-.55c.08,.09,.19,.17,.31,.23,.12,.06,.25,.09,.39,.09,.08,0,.15-.02,.23-.05,.07-.04,.11-.1,.11-.19s-.05-.15-.14-.19-.24-.09-.43-.13c-.1-.02-.2-.05-.3-.09-.1-.04-.19-.09-.27-.15-.08-.06-.14-.14-.19-.24s-.07-.21-.07-.34c0-.17,.04-.32,.11-.44,.07-.12,.17-.22,.28-.29s.24-.13,.38-.17c.14-.04,.28-.05,.42-.05,.22,0,.43,.03,.63,.1,.21,.07,.38,.17,.52,.3l-.52,.53Z"></path> <path class="cls-1" d="M38.49,13.89v-4.3h.96v4.3h-.96Z"></path> <path class="cls-1" d="M40.15,11.45c.17-.16,.37-.28,.59-.36,.22-.08,.45-.12,.69-.12s.45,.03,.61,.09c.17,.06,.3,.15,.41,.27,.1,.12,.18,.28,.23,.47,.05,.19,.07,.41,.07,.67v1.43h-.86v-.3h-.02c-.07,.12-.18,.21-.33,.27-.15,.06-.31,.1-.48,.1-.12,0-.23-.02-.36-.05-.12-.03-.24-.08-.34-.15-.1-.07-.19-.16-.25-.27-.07-.11-.1-.25-.1-.42,0-.2,.06-.37,.17-.49,.11-.13,.26-.22,.44-.29,.18-.07,.38-.11,.6-.14s.43-.03,.64-.03v-.05c0-.14-.05-.24-.15-.31-.1-.07-.22-.1-.37-.1-.13,0-.26,.03-.39,.09-.12,.06-.23,.13-.32,.2l-.48-.51Zm1.74,1.21h-.12c-.1,0-.21,0-.31,.01-.11,0-.2,.03-.28,.05-.08,.03-.15,.07-.2,.12-.05,.05-.08,.12-.08,.2,0,.05,.01,.1,.04,.14,.02,.04,.06,.07,.1,.09s.08,.04,.13,.05c.05,0,.1,.01,.14,.01,.19,0,.34-.05,.44-.16,.1-.1,.15-.25,.15-.42v-.1Z"></path> <path class="cls-1" d="M44.43,11.76v1.08c0,.13,.03,.23,.08,.3,.05,.07,.15,.1,.28,.1,.05,0,.1,0,.15-.01,.05,0,.1-.02,.13-.03v.68c-.05,.02-.14,.04-.24,.06-.1,.02-.2,.03-.3,.03-.19,0-.35-.02-.48-.07s-.24-.12-.31-.21c-.08-.09-.14-.2-.17-.32s-.05-.26-.05-.41v-1.2h-.46v-.69h.46v-.75h.93v.75h.67v.69h-.67Z"></path> <path class="cls-1" d="M48.39,12.51v.11s0,.07,0,.11h-2.08c0,.08,.03,.15,.07,.22,.04,.06,.09,.12,.16,.17,.06,.05,.13,.08,.21,.11,.08,.03,.16,.04,.24,.04,.15,0,.28-.03,.38-.08,.1-.05,.19-.13,.25-.21l.66,.41c-.13,.19-.31,.34-.53,.45-.22,.1-.48,.16-.77,.16-.22,0-.42-.03-.61-.1s-.36-.16-.5-.29c-.14-.13-.26-.28-.34-.47-.08-.19-.12-.4-.12-.64s.04-.44,.12-.63c.08-.19,.19-.35,.33-.48,.14-.13,.3-.23,.49-.3,.19-.07,.39-.11,.61-.11s.41,.04,.58,.11c.18,.07,.33,.17,.46,.3,.13,.13,.23,.29,.3,.48s.11,.41,.11,.65Zm-.87-.36c0-.15-.05-.27-.14-.38-.09-.11-.24-.16-.42-.16-.09,0-.18,.01-.25,.04-.08,.03-.14,.07-.2,.12s-.1,.11-.14,.17c-.03,.07-.05,.14-.06,.21h1.22Z"></path> </g> </g> </svg> 